<svg width="205" height="178" viewBox="0 0 205 178" fill="none" xmlns="http://www.w3.org/2000/svg">
<g clip-path="url(#clip0_454_4367)">
<path d="M147.887 32.9557H132.873V6.19824L147.887 11.5497V32.9557Z" fill="#2F2E41"/>
<path d="M150.553 168.811L147.454 168.893L145.727 153.347L150.3 153.226L150.553 168.811Z" fill="#A0616A"/>
<path d="M139.922 176.031C139.922 176.615 140.293 177.089 140.752 177.089H146.902C146.902 177.089 147.507 174.372 149.975 173.203L150.145 177.089H153.318L152.933 170.84C152.933 170.84 153.782 167.497 152.019 165.788C150.257 164.079 151.684 164.317 151.684 164.317L150.991 160.449L146.197 161.079L146.162 167.15L143.835 173.176L140.422 175.059C140.119 175.227 139.922 175.608 139.922 176.031Z" fill="#2F2E41"/>
<path d="M134.673 168.811L131.574 168.893L129.847 153.347L134.42 153.226L134.673 168.811Z" fill="#A0616A"/>
<path d="M124.042 176.031C124.042 176.615 124.413 177.089 124.872 177.089H131.022C131.022 177.089 131.627 174.372 134.095 173.203L134.265 177.089H137.438L137.053 170.84C137.053 170.84 137.902 167.497 136.14 165.788C134.377 164.079 135.805 164.317 135.805 164.317L135.111 160.449L130.317 161.079L130.282 167.15L127.955 173.176L124.542 175.059C124.239 175.227 124.042 175.608 124.042 176.031Z" fill="#2F2E41"/>
<path d="M148.845 62.2104L129.039 75.4108L124.566 95.7464L126.803 158.537H136.61L138.782 98.0654L143.13 158.537H153.091L155.611 90.6296C156.305 85.6946 155.757 80.6412 154.029 76.0335L148.845 62.2104Z" fill="#2F2E41"/>
<path d="M144.373 21.8959L136.067 21.1824L133.831 26.1771L127.442 27.9609L125.844 50.0804C129.004 59.2487 130.988 68.0101 129.039 75.4108L153.318 73.9837L149.264 61.7427C149.264 61.7427 149.165 57.2157 151.401 51.1507C153.637 45.0857 150.123 29.388 150.123 29.388L145.012 27.9609L144.373 21.8959Z" fill="#005133"/>
<path d="M88.4471 30.5004C89.2559 30.5284 90.0032 30.3501 90.5911 30.0306L98.2805 30.8407L98.5187 26.7432L90.6928 26.3626C90.1238 26.0031 89.3878 25.7734 88.579 25.7454C86.7314 25.6815 85.2041 26.6941 85.1677 28.0072C85.1312 29.3202 86.5995 30.4365 88.4471 30.5004Z" fill="#A0616A"/>
<path d="M133.933 43.0093C133.933 43.0093 133.662 29.9559 131.098 27.9966C130.041 27.1886 113.785 27.005 113.192 26.9365C109.54 26.5138 106.941 24.8944 103.866 24.7169C96.372 24.2844 92.5834 26.3153 92.5834 26.3153L92.4512 30.5062L133.933 43.0093Z" fill="#005133"/>
<path d="M139.513 20.8442C143.175 20.8442 146.145 17.5281 146.145 13.4375C146.145 9.34686 143.175 6.03076 139.513 6.03076C135.85 6.03076 132.88 9.34686 132.88 13.4375C132.88 17.5281 135.85 20.8442 139.513 20.8442Z" fill="#A0616A"/>
<path d="M137.501 2.40845C136.074 3.4127 135.03 2.69371 134.011 3.20019C132.02 4.18976 128.659 11.1401 128.962 14.05C129.391 18.1711 130.748 18.3408 130.707 21.2975C130.642 26.0453 130.304 26.0256 131.175 27.6834C132.143 29.5272 137.628 29.0266 138.646 26.5262C138.847 26.0329 136.616 26.2269 134.15 19.7553C132.913 16.5079 133.725 13.5487 134.15 12.2633C134.25 11.9623 134.295 9.82569 134.508 10.0628C136.369 12.142 137.413 10.6221 138.537 10.4477C140.844 10.0897 142.582 12.1684 143.282 11.4222C143.803 10.8668 143.138 9.3986 143.391 9.29054C143.66 9.17533 144.552 10.786 145.136 12.5184C145.512 13.6356 145.701 14.1942 145.681 14.8328C145.621 16.8048 145.171 22.396 144.373 24.0365C142.65 27.5793 144.82 28.9161 146.172 28.6578C147.265 28.4492 152.095 29.2707 152.36 28.6745C152.595 28.1434 152.057 22.68 151.492 17.6009C150.812 11.496 148.089 5.88606 143.819 1.99982C143.568 1.77192 143.382 1.61556 143.282 1.55581C143.045 1.4143 140.607 0.000197768 138.81 1.12949C138.148 1.54522 138.256 1.87689 137.501 2.40845Z" fill="#2F2E41"/>
<path d="M54.6534 174.593L50.9736 174.593L49.2231 158.742L54.6542 158.742L54.6534 174.593Z" fill="#FFB6B6"/>
<path d="M42.0461 174.5C41.9315 174.716 41.8711 175.411 41.8711 175.662C41.8711 176.432 42.4302 177.057 43.12 177.057H54.5159C54.9864 177.057 55.3679 176.631 55.3679 176.105V175.575C55.3679 175.575 55.9316 173.983 54.771 172.02C54.771 172.02 53.3285 173.557 51.173 171.15L50.5373 169.864L45.9362 173.622L43.3858 173.972C42.8279 174.049 42.3331 173.96 42.0461 174.5Z" fill="#2F2E41"/>
<path d="M70.1681 174.593L66.4883 174.593L64.7378 158.742L70.1688 158.742L70.1681 174.593Z" fill="#FFB6B6"/>
<path d="M57.5608 174.5C57.4462 174.716 57.3857 175.411 57.3857 175.662C57.3857 176.432 57.9449 177.057 58.6347 177.057H70.0305C70.5011 177.057 70.8825 176.631 70.8825 176.105V175.575C70.8825 175.575 71.4463 173.983 70.2856 172.02C70.2856 172.02 68.8431 173.557 66.6876 171.15L66.052 169.864L61.4508 173.622L58.9005 173.972C58.3425 174.049 57.8478 173.96 57.5608 174.5Z" fill="#2F2E41"/>
<path d="M70.8978 74.5169L43.9025 74.1704L41.1099 93.9225L47.9363 162.188H56.8858L58.9516 98.6006L62.6751 163.401H71.8384L76.0176 89.5909L70.8978 74.5169Z" fill="#2F2E41"/>
<path d="M185.343 171.871C185.984 171.916 186.338 171.026 185.853 170.508L185.805 170.294C185.812 170.276 185.818 170.259 185.824 170.242C186.473 168.516 188.67 168.528 189.312 170.257C189.883 171.791 190.609 173.328 190.788 174.951C190.868 175.667 190.832 176.397 190.69 177.099C192.027 173.838 192.73 170.277 192.73 166.696C192.73 165.797 192.686 164.897 192.596 163.999C192.522 163.265 192.419 162.536 192.287 161.813C191.572 157.905 190.023 154.183 187.788 151.074C186.714 150.418 185.818 149.393 185.277 148.164C185.082 147.721 184.93 147.244 184.858 146.759C184.98 146.777 185.319 144.697 185.227 144.57C185.397 144.281 185.702 144.137 185.888 143.856C186.813 142.455 188.088 142.699 188.754 144.603C190.176 145.405 190.19 146.734 189.317 148.012C188.762 148.825 188.686 149.926 188.199 150.796C188.249 150.868 188.301 150.937 188.351 151.009C189.27 152.325 190.065 153.74 190.734 155.226C190.545 153.574 190.825 151.584 191.301 150.302C191.844 148.84 192.86 147.609 193.756 146.346C194.831 144.829 197.037 145.491 197.226 147.415C197.228 147.433 197.23 147.452 197.231 147.47C197.098 147.554 196.968 147.643 196.841 147.737C196.115 148.273 196.366 149.53 197.226 149.678L197.245 149.682C197.197 150.217 197.115 150.747 196.995 151.269C198.144 156.229 195.664 158.036 192.123 158.117C192.045 158.162 191.969 158.207 191.89 158.249C192.249 159.377 192.536 160.535 192.748 161.707C192.939 162.744 193.071 163.791 193.145 164.843C193.237 166.17 193.229 167.504 193.129 168.829L193.135 168.782C193.39 167.323 194.099 165.96 195.129 165.015C196.664 163.608 198.832 163.089 200.487 161.958C201.284 161.413 202.305 162.117 202.166 163.149L202.16 163.198C201.913 163.31 201.673 163.44 201.44 163.585C201.307 163.669 201.177 163.758 201.05 163.852C200.324 164.388 200.575 165.645 201.435 165.793L201.454 165.797C201.468 165.799 201.48 165.801 201.494 165.803C201.071 166.925 200.482 167.965 199.745 168.863C199.026 173.193 195.942 173.604 192.642 172.343H192.64C192.279 174.098 191.752 175.812 191.075 177.446H185.483C185.463 177.377 185.445 177.305 185.427 177.236C185.944 177.272 186.465 177.238 186.974 177.133C186.559 176.564 186.145 175.991 185.73 175.423C185.72 175.412 185.712 175.401 185.704 175.389C185.493 175.098 185.281 174.81 185.07 174.519L185.07 174.518C185.057 173.625 185.153 172.735 185.343 171.871Z" fill="#F2F2F2"/>
<path d="M0 177.588C0 177.816 0.164464 178 0.369265 178H204.631C204.836 178 205 177.816 205 177.588C205 177.359 204.836 177.175 204.631 177.175H0.369265C0.164464 177.175 0 177.359 0 177.588Z" fill="#CCCCCC"/>
<path d="M61.7442 22.7111H52.1362L50.2634 26.8694L41.1099 31.5639L44.3679 58.4034L41.8856 76.0763H72.8939L70.1221 55.6312L73.8456 31.0277L63.606 26.5229L61.7442 22.7111Z" fill="#E6E6E6"/>
<path d="M93.9055 87.7481C93.4865 86.7933 93.2952 85.812 93.3169 84.9533L88.8105 76.1395L92.6287 73.8674L96.7888 83.0528C97.4099 83.5598 97.9873 84.3297 98.4063 85.2844C99.3636 87.4656 99.1321 89.7853 97.8892 90.4656C96.6464 91.1459 94.8628 89.9293 93.9055 87.7481Z" fill="#FFB6B6"/>
<path d="M64.2019 29.845C64.2019 29.845 67.2419 26.3519 70.6522 28.7827C74.0625 31.2136 86.5028 56.0886 86.5028 56.0886L96.0992 77.4736L89.3256 80.9979L81.1534 60.5199L63.9912 39.8941L64.2019 29.845Z" fill="#E6E6E6"/>
<path d="M56.5333 20.6841C61.3249 20.6841 65.2092 16.3461 65.2092 10.995C65.2092 5.64386 61.3249 1.30591 56.5333 1.30591C51.7418 1.30591 47.8574 5.64386 47.8574 10.995C47.8574 16.3461 51.7418 20.6841 56.5333 20.6841Z" fill="#FFB6B6"/>
<path d="M53.8105 18.7929C53.8507 19.7422 53.8708 20.2168 53.7402 20.2741C53.3471 20.4468 48.2854 17.1084 47.6894 14.8861C47.4114 13.8496 47.6462 13.8289 47.4433 10.8801C47.2492 8.05984 47.0316 8.03737 47.2888 7.33961C47.5747 6.56408 48.4478 5.60858 50.194 3.69756C50.8543 2.97499 51.1844 2.6137 51.3928 2.42691C52.0244 1.86077 54.3773 -0.24831 56.5349 0.0241743C57.4393 0.138393 57.2847 0.54164 60.6633 2.58776C60.9543 2.764 61.3445 2.99664 61.8834 3.26375C63.1942 3.91339 64.0073 4.08181 64.4354 4.26298C67.0297 5.36093 66.2684 11.4771 66.0454 11.5121C65.9642 11.5249 65.9421 10.7318 65.5164 10.6662C65.1332 10.6072 64.8892 11.2094 64.5409 11.2314C63.5897 11.2912 64.646 10.2744 62.3181 9.14502C61.4131 8.70598 63.9312 10.6855 61.5341 10.6534C57.7855 10.6031 60.183 10.8696 58.7593 11.7047C57.7211 12.3138 53.5445 8.962 53.7142 10.033C53.8339 10.7885 54.3248 11.006 54.254 11.8522C54.1854 12.6721 53.6336 13.5558 53.1469 13.5883C52.6984 13.6182 52.4526 12.9152 52.3029 12.9825C52.1402 13.0557 52.3189 13.9379 52.6699 14.8442C53.1154 15.9948 53.3814 16.0038 53.6163 16.8888C53.7515 17.3977 53.7712 17.8628 53.8105 18.7929Z" fill="#2F2E41"/>
<path d="M122.191 84.9032L66.2896 69.0194C62.7161 68.0041 60.5485 63.9312 61.4577 59.9405L68.4122 29.4145C69.3214 25.4238 72.9683 23.0031 76.5417 24.0184L132.443 39.9022C136.017 40.9175 138.184 44.9904 137.275 48.9811L130.32 79.5071C129.411 83.4978 125.764 85.9185 122.191 84.9032Z" fill="white"/>
<path d="M122.191 84.9031L66.2894 69.0193C64.5027 68.5117 63.0674 67.2396 62.0421 65.5529C60.5504 63.0989 60.1612 60.0092 60.816 57.1347L66.6478 31.5366C67.3027 28.6621 68.9668 26.1559 71.3273 24.7964C72.9498 23.862 74.7549 23.5107 76.5416 24.0184L132.443 39.9021C136.022 40.9191 138.185 44.9839 137.275 48.981L130.32 79.507C129.411 83.4977 125.764 85.9184 122.191 84.9031ZM76.3886 24.69C73.1415 23.7674 73.9902 27.0515 73.164 30.6778C69.1335 48.3696 77.47 66.6603 92.6528 73.4247C100.849 77.0762 107.666 80.0608 107.666 80.0608C119.019 83.2868 130.565 75.6233 133.453 62.944L136.673 48.8102C137.499 45.1839 135.537 41.4964 132.29 40.5738L76.3886 24.69Z" fill="#3F3D56"/>
<path d="M102.544 48.7454C102.155 45.1691 99.2431 42.6226 96.0408 43.0577C92.8689 43.4886 90.6033 46.6833 90.9391 50.2194L90.8462 50.232L92.2569 63.1829L102.928 61.7332C103.265 61.7536 103.608 61.7435 103.955 61.6964C107.157 61.2613 109.438 58.0095 109.048 54.4332C108.659 50.8569 105.747 48.3104 102.544 48.7454Z" fill="#005133"/>
<path d="M82.0903 171.088C81.6384 169.788 80.3279 169.143 79.1633 169.647C78.0098 170.147 77.4327 171.588 77.861 172.879L77.8273 172.894L79.4639 177.603L83.3446 175.921C83.4729 175.893 83.6008 175.853 83.727 175.798C84.8916 175.293 85.4693 173.83 85.0173 172.529C84.5653 171.229 83.2549 170.584 82.0903 171.088Z" fill="#E6E6E6"/>
<path d="M168.972 171.088C168.52 169.788 167.21 169.143 166.045 169.647C164.892 170.147 164.315 171.588 164.743 172.879L164.709 172.894L166.346 177.603L170.226 175.921C170.355 175.893 170.483 175.853 170.609 175.798C171.773 175.293 172.351 173.83 171.899 172.529C171.447 171.229 170.137 170.584 168.972 171.088Z" fill="#E6E6E6"/>
<path d="M97.9626 86.0725C102.075 86.0725 105.41 82.349 105.41 77.7559C105.41 73.1627 102.075 69.4392 97.9626 69.4392C93.8498 69.4392 90.5156 73.1627 90.5156 77.7559C90.5156 82.349 93.8498 86.0725 97.9626 86.0725Z" fill="#005133"/>
<path d="M64.1097 44.0273C63.3107 44.6054 62.4609 44.9341 61.6949 45.0121L54.3942 51.0567L51.9204 47.0929L59.5925 41.3881C59.9694 40.6392 60.5853 39.9074 61.3844 39.3293C63.2098 38.0085 65.2997 37.9895 66.0523 39.2869C66.8049 40.5842 65.9352 42.7065 64.1097 44.0273Z" fill="#FFB6B6"/>
<path d="M47.0104 29.9221C47.0104 29.9221 41.4252 29.229 40.4943 31.6547C39.5634 34.0804 37.7017 58.3373 37.7017 58.3373L40.8046 64.2283L61.1531 47.0294L57.0323 42.4274L48.3114 47.0294L47.0104 29.9221Z" fill="#E6E6E6"/>
<path d="M127.907 37.7602C128.571 38.5225 129.334 39.0542 130.065 39.3209L135.977 47.0293L139.179 43.7804L132.838 36.3107C132.619 35.4869 132.165 34.6203 131.501 33.858C129.985 32.1164 127.951 31.5781 126.959 32.6556C125.967 33.7332 126.391 36.0186 127.907 37.7602Z" fill="#A0616A"/>
<path d="M147.39 28.262C147.39 28.262 152.974 28.9754 153.397 31.5717C153.821 34.168 150.799 58.2788 150.799 58.2788L146.599 63.2501L130.191 41.4222L135.126 37.9606L142.711 44.616L147.39 28.262Z" fill="#005133"/>
<path d="M72.1094 56.2562C74.6806 56.2562 76.7651 53.9283 76.7651 51.0567C76.7651 48.1852 74.6806 45.8573 72.1094 45.8573C69.5381 45.8573 67.4536 48.1852 67.4536 51.0567C67.4536 53.9283 69.5381 56.2562 72.1094 56.2562Z" fill="#E6E6E6"/>
</g>
<defs>
<clipPath id="clip0_454_4367">
<rect width="205" height="178" fill="white"/>
</clipPath>
</defs>
</svg>
