<svg width="205" height="178" viewBox="0 0 205 178" fill="none" xmlns="http://www.w3.org/2000/svg">
<g clip-path="url(#clip0_187_3212)">
<rect x="46" width="159" height="103" rx="5" fill="#D9D9D9"/>
<path d="M110.131 7.9787C109.815 7.98441 109.514 8.12386 109.292 8.36701C109.071 8.61015 108.947 8.93751 108.947 9.27852C108.947 9.61953 109.071 9.94689 109.292 10.19C109.514 10.4332 109.815 10.5726 110.131 10.5783H140.319C140.638 10.5834 140.945 10.4519 141.174 10.2126C141.403 9.9733 141.535 9.64575 141.541 9.30172C141.547 8.9577 141.426 8.62527 141.205 8.37728C140.984 8.1293 140.681 7.98599 140.362 7.97876L140.359 7.9787C140.345 7.97845 140.332 7.97845 140.319 7.9787H110.131Z" fill="#3F3D56"/>
<path d="M147.165 7.61666C147.121 7.66462 147.096 7.72967 147.096 7.79751C147.096 7.86534 147.121 7.9304 147.165 7.97837L148.182 9.07641H145.674C145.611 9.07661 145.551 9.10365 145.507 9.15159C145.463 9.19954 145.438 9.26448 145.438 9.33219C145.438 9.39989 145.463 9.46483 145.507 9.51278C145.551 9.56072 145.611 9.58776 145.674 9.58796H148.182L147.165 10.686C147.143 10.7097 147.126 10.7379 147.114 10.769C147.102 10.8 147.096 10.8333 147.096 10.8668C147.096 10.9004 147.102 10.9337 147.114 10.9647C147.126 10.9958 147.143 11.024 147.165 11.0477C147.187 11.0715 147.213 11.0903 147.242 11.1032C147.271 11.116 147.302 11.1226 147.333 11.1226C147.364 11.1226 147.395 11.116 147.423 11.1032C147.452 11.0903 147.478 11.0715 147.5 11.0477L148.922 9.51306C148.966 9.46508 148.991 9.40003 148.991 9.33219C148.991 9.26435 148.966 9.19929 148.922 9.15132L147.5 7.61666C147.478 7.59291 147.452 7.57407 147.423 7.56122C147.395 7.54836 147.364 7.54175 147.333 7.54175C147.302 7.54175 147.271 7.54836 147.242 7.56122C147.213 7.57407 147.187 7.59291 147.165 7.61666Z" fill="#E6E6E6"/>
<path d="M103.272 7.61666C103.316 7.66463 103.341 7.72968 103.341 7.79751C103.341 7.86535 103.316 7.9304 103.272 7.97837L102.255 9.07641H104.763C104.794 9.07628 104.825 9.08279 104.854 9.09556C104.882 9.10834 104.909 9.12713 104.931 9.15086C104.953 9.1746 104.97 9.2028 104.982 9.23387C104.994 9.26493 105.001 9.29824 105.001 9.33189C105.001 9.36554 104.995 9.39886 104.983 9.42995C104.971 9.46105 104.953 9.4893 104.931 9.51309C104.909 9.53688 104.883 9.55574 104.854 9.56858C104.825 9.58143 104.794 9.58802 104.763 9.58797H102.255L103.272 10.686C103.294 10.7097 103.311 10.7379 103.323 10.769C103.335 10.8 103.341 10.8333 103.341 10.8669C103.341 10.9004 103.335 10.9337 103.323 10.9647C103.311 10.9958 103.294 11.024 103.272 11.0477C103.25 11.0715 103.224 11.0903 103.195 11.1032C103.166 11.116 103.135 11.1226 103.104 11.1226C103.073 11.1226 103.042 11.116 103.014 11.1032C102.985 11.0903 102.959 11.0715 102.937 11.0477L101.515 9.51306C101.471 9.46509 101.446 9.40003 101.446 9.33219C101.446 9.26436 101.471 9.1993 101.515 9.15133L102.937 7.61667C102.981 7.5687 103.041 7.54175 103.104 7.54175C103.167 7.54175 103.227 7.5687 103.272 7.61666Z" fill="#E6E6E6"/>
<path d="M45.3464 108.684C43.9738 108.684 42.632 108.244 41.4908 107.421C40.3495 106.598 39.46 105.428 38.9348 104.059C38.4095 102.69 38.2721 101.183 38.5398 99.7302C38.8076 98.2768 39.4686 96.9419 40.4391 95.8941C41.4097 94.8463 42.6463 94.1328 43.9925 93.8437C45.3387 93.5546 46.7341 93.703 48.0022 94.27C49.2702 94.8371 50.3541 95.7973 51.1167 97.0294C51.8792 98.2615 52.2863 99.71 52.2863 101.192C52.2863 103.179 51.5551 105.084 50.2536 106.49C48.9521 107.895 47.1869 108.684 45.3464 108.684Z" fill="#005133"/>
<path d="M48.0845 100.453H46.0308V98.2356C46.0308 98.0396 45.9587 97.8516 45.8303 97.713C45.7019 97.5744 45.5278 97.4966 45.3462 97.4966C45.1647 97.4966 44.9905 97.5744 44.8622 97.713C44.7338 97.8516 44.6616 98.0396 44.6616 98.2356V100.453H42.6079C42.4264 100.453 42.2522 100.531 42.1238 100.669C41.9955 100.808 41.9233 100.996 41.9233 101.192C41.9233 101.388 41.9955 101.576 42.1238 101.714C42.2522 101.853 42.4264 101.931 42.6079 101.931H44.6616V104.148C44.6616 104.344 44.7338 104.532 44.8622 104.671C44.9905 104.809 45.1647 104.887 45.3462 104.887C45.5278 104.887 45.7019 104.809 45.8303 104.671C45.9587 104.532 46.0308 104.344 46.0308 104.148V101.931H48.0845C48.2661 101.931 48.4402 101.853 48.5686 101.714C48.697 101.576 48.7691 101.388 48.7691 101.192C48.7691 100.996 48.697 100.808 48.5686 100.669C48.4402 100.531 48.2661 100.453 48.0845 100.453Z" fill="white"/>
<path d="M78.9491 21.2871H58.0925V36.5894H78.9491V21.2871Z" fill="#F1F1F1"/>
<path d="M107.298 21.2871H86.4414V36.5894H107.298V21.2871Z" fill="#F1F1F1"/>
<path d="M135.647 21.2871H114.79V36.5894H135.647V21.2871Z" fill="#F1F1F1"/>
<path d="M163.996 21.2871H143.139V36.5894H163.996V21.2871Z" fill="#F1F1F1"/>
<path d="M192.344 21.2871H171.488V36.5894H192.344V21.2871Z" fill="#F1F1F1"/>
<path d="M79.0255 48.1753H58.1689V63.4776H79.0255V48.1753Z" fill="#F1F1F1"/>
<path d="M107.374 48.1753H86.5178V63.4776H107.374V48.1753Z" fill="#F1F1F1"/>
<path d="M135.723 48.1753H114.867V63.4776H135.723V48.1753Z" fill="#F1F1F1"/>
<path d="M164.072 48.1753H143.215V63.4776H164.072V48.1753Z" fill="#F1F1F1"/>
<path d="M192.421 48.1753H171.564V63.4776H192.421V48.1753Z" fill="#F1F1F1"/>
<path d="M79.1022 75.0635H58.2456V90.3657H79.1022V75.0635Z" fill="#F1F1F1"/>
<path d="M107.451 75.0635H86.5942V90.3657H107.451V75.0635Z" fill="#F1F1F1"/>
<path d="M135.8 75.0635H114.943V90.3657H135.8V75.0635Z" fill="#F1F1F1"/>
<path d="M164.149 75.0635H143.292V90.3657H164.149V75.0635Z" fill="#F1F1F1"/>
<path d="M192.497 75.0635H171.641V90.3657H192.497V75.0635Z" fill="#F1F1F1"/>
<path d="M119.119 28.9383C120.573 28.9383 121.751 27.666 121.751 26.0965C121.751 24.527 120.573 23.2546 119.119 23.2546C117.665 23.2546 116.487 24.527 116.487 26.0965C116.487 27.666 117.665 28.9383 119.119 28.9383Z" fill="#005133"/>
<path d="M90.3653 55.8265C91.8191 55.8265 92.9977 54.5542 92.9977 52.9847C92.9977 51.4152 91.8191 50.1428 90.3653 50.1428C88.9115 50.1428 87.7329 51.4152 87.7329 52.9847C87.7329 54.5542 88.9115 55.8265 90.3653 55.8265Z" fill="#005133"/>
<path d="M119.119 82.7147C120.573 82.7147 121.751 81.4424 121.751 79.8729C121.751 78.3033 120.573 77.031 119.119 77.031C117.665 77.031 116.487 78.3033 116.487 79.8729C116.487 81.4424 117.665 82.7147 119.119 82.7147Z" fill="#005133"/>
<path d="M148.075 55.8265C149.529 55.8265 150.708 54.5542 150.708 52.9847C150.708 51.4152 149.529 50.1428 148.075 50.1428C146.621 50.1428 145.443 51.4152 145.443 52.9847C145.443 54.5542 146.621 55.8265 148.075 55.8265Z" fill="#3F3D56"/>
<path d="M176.221 55.8265C177.675 55.8265 178.854 54.5542 178.854 52.9847C178.854 51.4152 177.675 50.1428 176.221 50.1428C174.768 50.1428 173.589 51.4152 173.589 52.9847C173.589 54.5542 174.768 55.8265 176.221 55.8265Z" fill="#3F3D56"/>
<path d="M90.3653 82.7147C91.8191 82.7147 92.9977 81.4424 92.9977 79.8729C92.9977 78.3033 91.8191 77.031 90.3653 77.031C88.9115 77.031 87.7329 78.3033 87.7329 79.8729C87.7329 81.4424 88.9115 82.7147 90.3653 82.7147Z" fill="#3F3D56"/>
<path d="M21.3458 107.016C24.0461 107.016 26.2351 104.653 26.2351 101.738C26.2351 98.8226 24.0461 96.4595 21.3458 96.4595C18.6455 96.4595 16.4565 98.8226 16.4565 101.738C16.4565 104.653 18.6455 107.016 21.3458 107.016Z" fill="#FFB8B8"/>
<path d="M19.5807 132.97C19.5191 132.97 19.4573 132.967 19.3951 132.961C19.0876 132.934 18.789 132.836 18.5189 132.675C18.2487 132.514 18.0132 132.293 17.8276 132.027C17.642 131.761 17.5105 131.456 17.4419 131.131C17.3733 130.806 17.369 130.469 17.4294 130.143C17.4436 130.067 17.4616 129.992 17.4831 129.918L10.267 120.704C10.0318 120.402 9.89335 120.025 9.87203 119.631C9.85071 119.237 9.94771 118.846 10.1486 118.516L10.1617 118.498L16.6571 111.584C17.0118 111.207 17.4906 110.998 17.9883 111.002C18.4861 111.006 18.962 111.223 19.3114 111.605C19.6609 111.988 19.8553 112.505 19.852 113.042C19.8486 113.579 19.6478 114.093 19.2936 114.471C19.2855 114.48 19.2773 114.488 19.269 114.497L14.5646 119.325L19.7147 128.248C19.8123 128.254 19.9093 128.267 20.0052 128.287C20.538 128.402 21.0122 128.726 21.3358 129.197C21.6594 129.668 21.8093 130.252 21.7564 130.836C21.7035 131.42 21.4515 131.961 21.0495 132.356C20.6474 132.75 20.1239 132.969 19.5807 132.97Z" fill="#FFB8B8"/>
<path d="M29.3984 175.198H31.839L33 165.036L29.3979 165.036L29.3984 175.198Z" fill="#FFB8B8"/>
<path d="M28.7761 174.338L33.5823 174.338C33.9845 174.338 34.383 174.424 34.7546 174.59C35.1262 174.756 35.4639 174.999 35.7483 175.307C36.0327 175.614 36.2583 175.978 36.4123 176.379C36.5662 176.78 36.6454 177.21 36.6454 177.645V177.752L28.7763 177.753L28.7761 174.338Z" fill="#2F2E41"/>
<path d="M5.14136 171.556L7.23829 172.903L13.052 164.813L9.95705 162.824L5.14136 171.556Z" fill="#FFB8B8"/>
<path d="M5.01411 170.473L9.14376 173.127C9.84172 173.576 10.3462 174.305 10.5459 175.155C10.7455 176.006 10.6242 176.906 10.2087 177.66L10.1577 177.752L3.39624 173.406L5.01411 170.473Z" fill="#2F2E41"/>
<path d="M32.415 171.609H29.6821C29.4609 171.61 29.2473 171.521 29.0828 171.362C28.9182 171.202 28.8144 170.982 28.7914 170.744L26.0363 142.786C26.0294 142.715 26.0011 142.649 25.956 142.598C25.9109 142.547 25.8514 142.513 25.7867 142.502C25.7219 142.49 25.6556 142.502 25.5979 142.536C25.5401 142.57 25.4942 142.623 25.4672 142.687L20.497 154.568L11.6974 170.059C11.5836 170.257 11.4072 170.405 11.2007 170.475C10.9942 170.544 10.7714 170.532 10.573 170.438L7.0577 168.769C6.94146 168.713 6.83744 168.632 6.75251 168.53C6.66759 168.428 6.6037 168.308 6.5651 168.177C6.5265 168.047 6.51406 167.909 6.5286 167.772C6.54314 167.636 6.58434 167.505 6.64945 167.387L14.7386 152.765L17.2195 140.445C16.4393 135.102 19.7843 127.159 19.8182 127.079L19.8347 127.04L29.0487 123.152L29.0949 123.213C32.7286 136.087 34.9428 149.94 33.3079 170.723C33.2877 170.964 33.1851 171.189 33.02 171.352C32.8549 171.516 32.6392 171.608 32.415 171.609Z" fill="#2F2E41"/>
<path d="M19.4635 128.342L19.4206 128.244C19.4001 128.198 17.3513 123.533 15.772 118.547C15.4685 117.583 15.3537 116.561 15.435 115.546C15.5163 114.532 15.7919 113.547 16.2443 112.653C16.7026 111.75 17.3296 110.96 18.0855 110.333C18.8415 109.705 19.7099 109.254 20.6358 109.008C22.2432 108.592 23.9356 108.813 25.4045 109.631C26.8734 110.449 28.0212 111.81 28.6387 113.465C29.8914 116.847 29.4922 120.457 29.1164 123.296L29.1089 123.353L29.061 123.378L19.4635 128.342Z" fill="#005133"/>
<path d="M27.2741 98.756H19.5105V95.1026C21.2145 94.3717 22.882 93.7502 23.8899 95.1026C24.7875 95.1026 25.6482 95.4875 26.2829 96.1726C26.9175 96.8578 27.2741 97.787 27.2741 98.756Z" fill="#2F2E41"/>
<path d="M19.0807 94.458C14.4395 94.458 13.1404 100.738 13.1404 104.282C13.1404 106.258 13.9681 106.964 15.2689 107.203L15.7282 104.559L16.8041 107.317C17.1695 107.319 17.5534 107.312 17.9513 107.304L18.3161 106.493L19.1295 107.289C22.3876 107.294 25.0208 107.807 25.0208 104.282C25.0208 100.738 23.8816 94.458 19.0807 94.458Z" fill="#2F2E41"/>
<path d="M39.7104 101.487C39.7399 101.545 39.7672 101.605 39.7922 101.667C39.9171 101.972 39.9809 102.301 39.9796 102.634C39.9783 102.967 39.9117 103.296 39.7844 103.6C39.657 103.903 39.4717 104.174 39.2406 104.395C39.0095 104.616 38.7378 104.781 38.4433 104.881C38.3748 104.904 38.3052 104.923 38.2348 104.938L34.2048 116.192C34.0716 116.559 33.832 116.871 33.5218 117.08C33.2115 117.289 32.847 117.385 32.4823 117.353L32.4621 117.349L23.7273 114.51C23.2505 114.355 22.8503 114.002 22.6146 113.528C22.379 113.055 22.3273 112.5 22.4709 111.985C22.6144 111.47 22.9416 111.038 23.3802 110.783C23.8189 110.529 24.3333 110.473 24.8101 110.628C24.821 110.632 24.8319 110.635 24.8427 110.639L31.023 112.781L35.8078 103.624C35.7655 103.529 35.7294 103.431 35.6999 103.33C35.5378 102.77 35.5742 102.165 35.8019 101.633C36.0297 101.101 36.4326 100.679 36.9324 100.449C37.4323 100.219 37.9933 100.198 38.5067 100.39C39.02 100.582 39.449 100.973 39.7104 101.487Z" fill="#FFB8B8"/>
<path d="M40.7233 178H0.211002C0.155041 178 0.101371 177.976 0.0618008 177.933C0.0222303 177.891 0 177.833 0 177.772C0 177.712 0.0222303 177.654 0.0618008 177.611C0.101371 177.568 0.155041 177.544 0.211002 177.544H40.7233C40.7793 177.544 40.833 177.568 40.8725 177.611C40.9121 177.654 40.9343 177.712 40.9343 177.772C40.9343 177.833 40.9121 177.891 40.8725 177.933C40.833 177.976 40.7793 178 40.7233 178Z" fill="#CCCCCC"/>
</g>
<defs>
<clipPath id="clip0_187_3212">
<rect width="205" height="178" fill="white"/>
</clipPath>
</defs>
</svg>
