<svg width="199" height="178" viewBox="0 0 199 178" fill="none" xmlns="http://www.w3.org/2000/svg">
<g clip-path="url(#clip0_506_5579)">
<path d="M76.8341 162.125L71.6519 166.511L75.7703 160.158C72.5256 154.748 67.2188 150.072 67.2188 150.072C67.2188 150.072 56.2092 159.77 56.2092 167.394C56.2092 175.017 61.1384 177.679 67.2188 177.679C73.2992 177.679 78.2284 175.017 78.2284 167.394C78.2284 165.697 77.6821 163.897 76.8341 162.125Z" fill="#444444"/>
<path d="M70.3191 166.749V167.124C70.2948 171.492 69.4936 174.9 67.9215 177.3C67.8993 177.335 67.875 177.369 67.8527 177.404L67.6767 177.306L67.5088 177.209C69.2529 174.618 69.8699 170.955 69.8922 167.145C69.8942 167.022 69.8963 166.898 69.8942 166.773C69.8882 165.16 69.7809 163.529 69.6089 161.944C69.5968 161.821 69.5827 161.696 69.5685 161.572C69.3297 159.481 68.9858 157.483 68.6337 155.747C68.6095 155.624 68.5831 155.502 68.5568 155.381C67.9478 152.445 67.3267 150.319 67.1851 149.848C67.1689 149.791 67.1588 149.759 67.1567 149.751L67.349 149.701L67.351 149.699L67.5452 149.649C67.5472 149.657 67.5816 149.763 67.6383 149.96C67.8548 150.697 68.4172 152.696 68.9696 155.334C68.9939 155.453 69.0202 155.576 69.0445 155.699C69.3318 157.107 69.613 158.681 69.8356 160.333C69.8922 160.748 69.9428 161.157 69.9873 161.56C70.0035 161.685 70.0177 161.81 70.0298 161.932C70.2159 163.646 70.3124 165.251 70.3191 166.749Z" fill="#666666"/>
<path d="M68.9696 155.334C68.8341 155.351 68.6965 155.368 68.5569 155.381C68.1778 155.417 67.7969 155.435 67.4158 155.435C65.7915 155.437 64.1875 155.104 62.7218 154.46C62.6368 154.559 62.5518 154.657 62.4648 154.758C64.0067 155.45 65.7001 155.808 67.4158 155.807C67.8226 155.807 68.2292 155.787 68.6338 155.747C68.7714 155.734 68.909 155.717 69.0445 155.699C70.1635 155.551 71.2516 155.248 72.2716 154.8C72.1846 154.698 72.0996 154.598 72.0167 154.499C71.0513 154.914 70.0245 155.195 68.9696 155.334Z" fill="#666666"/>
<path d="M69.9874 161.561C69.8478 161.568 69.7082 161.572 69.5685 161.572C69.5261 161.574 69.4816 161.574 69.4391 161.574C67.6791 161.574 65.9452 161.182 64.3852 160.433C62.8252 159.684 61.4854 158.599 60.48 157.271C60.3991 157.381 60.3182 157.49 60.2393 157.602C61.2872 158.946 62.6683 160.041 64.2681 160.796C65.868 161.551 67.6406 161.946 69.4391 161.946C69.4957 161.946 69.5524 161.946 69.609 161.944C69.7506 161.942 69.8902 161.938 70.0298 161.933C72.1901 161.831 74.2728 161.159 76.0288 159.998C75.9641 159.888 75.8993 159.778 75.8326 159.669C74.1259 160.809 72.0945 161.466 69.9874 161.561Z" fill="#666666"/>
<path d="M70.3191 166.749C70.1775 166.76 70.0359 166.767 69.8942 166.773C69.7425 166.778 69.5907 166.782 69.439 166.782C67.0741 166.78 64.7736 166.073 62.8821 164.768C60.9906 163.463 59.6097 161.629 58.9463 159.542C58.8553 159.693 58.7643 159.842 58.6772 159.992C59.4247 162.074 60.8669 163.887 62.7988 165.173C64.7307 166.459 67.0541 167.152 69.439 167.154C69.5907 167.154 69.7425 167.152 69.8922 167.145C70.0359 167.141 70.1775 167.134 70.3191 167.124C73.1798 166.919 75.8486 165.721 77.785 163.774C77.7425 163.636 77.6939 163.501 77.6454 163.363C75.775 165.325 73.1471 166.539 70.3191 166.749Z" fill="#666666"/>
<path d="M198.712 9.53226H0.287971C0.211763 9.53202 0.138773 9.50402 0.0849789 9.45439C0.0311851 9.40476 0.000976562 9.33754 0.000976562 9.26747C0.000976562 9.19741 0.0311851 9.1302 0.0849789 9.08057C0.138773 9.03094 0.211763 9.00293 0.287971 9.00269H198.712C198.788 9.00293 198.861 9.03094 198.915 9.08057C198.969 9.1302 198.999 9.19741 198.999 9.26747C198.999 9.33754 198.969 9.40476 198.915 9.45439C198.861 9.50402 198.788 9.53202 198.712 9.53226Z" fill="#CACACA"/>
<path d="M6.76992 5.82531C8.51949 5.82531 9.93779 4.52127 9.93779 2.91265C9.93779 1.30404 8.51949 0 6.76992 0C5.02035 0 3.60205 1.30404 3.60205 2.91265C3.60205 4.52127 5.02035 5.82531 6.76992 5.82531Z" fill="#3F3D56"/>
<path d="M17.7135 5.82531C19.4631 5.82531 20.8814 4.52127 20.8814 2.91265C20.8814 1.30404 19.4631 0 17.7135 0C15.964 0 14.5457 1.30404 14.5457 2.91265C14.5457 4.52127 15.964 5.82531 17.7135 5.82531Z" fill="#3F3D56"/>
<path d="M28.6571 5.82531C30.4067 5.82531 31.825 4.52127 31.825 2.91265C31.825 1.30404 30.4067 0 28.6571 0C26.9076 0 25.4893 1.30404 25.4893 2.91265C25.4893 4.52127 26.9076 5.82531 28.6571 5.82531Z" fill="#3F3D56"/>
<path d="M192.155 1.78156H184.379C184.227 1.78107 184.081 1.72507 183.973 1.62581C183.866 1.52655 183.805 1.39212 183.805 1.25199C183.805 1.11185 183.866 0.977428 183.973 0.878167C184.081 0.778905 184.227 0.722899 184.379 0.722415H192.155C192.231 0.722175 192.306 0.735693 192.376 0.762199C192.446 0.788705 192.51 0.827676 192.564 0.876875C192.617 0.926074 192.66 0.984533 192.689 1.0489C192.718 1.11327 192.733 1.18229 192.733 1.25199C192.733 1.32169 192.718 1.3907 192.689 1.45507C192.66 1.51944 192.617 1.5779 192.564 1.6271C192.51 1.6763 192.446 1.71527 192.376 1.74177C192.306 1.76828 192.231 1.7818 192.155 1.78156Z" fill="#3F3D56"/>
<path d="M192.155 3.7674H184.379C184.227 3.76691 184.081 3.71091 183.973 3.61165C183.866 3.51239 183.805 3.37796 183.805 3.23783C183.805 3.09769 183.866 2.96327 183.973 2.86401C184.081 2.76475 184.227 2.70874 184.379 2.70826H192.155C192.231 2.70801 192.306 2.72153 192.376 2.74804C192.446 2.77454 192.51 2.81352 192.564 2.86271C192.617 2.91191 192.66 2.97037 192.689 3.03474C192.718 3.09911 192.733 3.16813 192.733 3.23783C192.733 3.30753 192.718 3.37654 192.689 3.44091C192.66 3.50528 192.617 3.56374 192.564 3.61294C192.51 3.66214 192.446 3.70111 192.376 3.72761C192.306 3.75412 192.231 3.76764 192.155 3.7674Z" fill="#3F3D56"/>
<path d="M192.155 5.75349H184.379C184.227 5.753 184.081 5.69699 183.973 5.59773C183.866 5.49847 183.805 5.36405 183.805 5.22391C183.805 5.08378 183.866 4.94936 183.973 4.8501C184.081 4.75083 184.227 4.69482 184.379 4.69434H192.155C192.231 4.6941 192.306 4.70762 192.376 4.73413C192.446 4.76063 192.51 4.7996 192.564 4.8488C192.617 4.898 192.66 4.95646 192.689 5.02083C192.718 5.0852 192.733 5.15421 192.733 5.22391C192.733 5.29361 192.718 5.36262 192.689 5.42699C192.66 5.49136 192.617 5.54983 192.564 5.59903C192.51 5.64823 192.446 5.68719 192.376 5.7137C192.306 5.7402 192.231 5.75373 192.155 5.75349Z" fill="#3F3D56"/>
<path d="M187.816 21.5068H5.97778V110.086H187.816V21.5068Z" fill="white"/>
<path d="M187.816 38.0874V37.2187H152.419V21.5068H151.475V37.2187H116.078V21.5068H115.133V37.2187H79.7363V21.5068H78.7915V37.2187H43.3946V21.5068H42.4498V37.2187H5.97778V38.0874H42.4498V55.4449H5.97778V56.3136H42.4498V73.6712H5.97778V74.5399H42.4498V91.8943H5.97778V92.7629H42.4498V110.086H43.3946V92.7629H78.7915V110.086H79.7363V92.7629H115.133V110.086H116.078V92.7629H151.475V110.086H152.419V92.7629H187.816V91.8943H152.419V74.5399H187.816V73.6712H152.419V56.3136H187.816V55.445H152.419V38.0874L187.816 38.0874ZM78.7915 91.8943H43.3946V74.5399H78.7915V91.8943ZM78.7915 73.6712H43.3946V56.3136H78.7915V73.6712ZM78.7915 55.445H43.3946V38.0874H78.7915V55.445ZM115.133 91.8943H79.7363V74.5399H115.133V91.8943ZM115.133 73.6712H79.7363V56.3136H115.133V73.6712ZM115.133 55.445H79.7363V38.0874H115.133V55.445ZM151.475 91.8943H116.078V74.5399H151.475V91.8943ZM151.475 73.6712H116.078V56.3136H151.475V73.6712ZM151.475 55.445H116.078V38.0874H151.475V55.445Z" fill="#666666"/>
<path d="M62.6011 42.3088H50.436V53.1373H62.6011V42.3088Z" fill="#CACACA"/>
<path d="M174.601 77.3713H162.436V88.1998H174.601V77.3713Z" fill="#CACACA"/>
<path d="M66.3804 95.3765H54.2153V106.205H66.3804V95.3765Z" fill="#CACACA"/>
<path d="M69.9756 40.2998H57.8105V51.1282H69.9756V40.2998Z" fill="#005133"/>
<path d="M127.161 85.3114L141.597 73.4858L145.856 75.426L128.542 92.1227L127.161 85.3114Z" fill="#FFB6B6"/>
<path d="M143.497 77.5503C145.395 77.5503 146.933 76.136 146.933 74.3915C146.933 72.6469 145.395 71.2327 143.497 71.2327C141.6 71.2327 140.062 72.6469 140.062 74.3915C140.062 76.136 141.6 77.5503 143.497 77.5503Z" fill="#FFB6B6"/>
<path d="M113.649 174.32H110.233L108.608 162.206L113.649 162.206L113.649 174.32Z" fill="#FFB6B6"/>
<path d="M114.52 177.364L103.506 177.364V177.236C103.506 176.191 103.957 175.188 104.761 174.449C105.565 173.71 106.656 173.294 107.793 173.294L114.52 173.295L114.52 177.364Z" fill="#2F2E41"/>
<path d="M101.281 174.32H97.8645L96.2395 162.206L101.281 162.206L101.281 174.32Z" fill="#FFB6B6"/>
<path d="M102.152 177.364L91.1377 177.364V177.236C91.1378 176.191 91.5895 175.188 92.3934 174.449C93.1974 173.71 94.2877 173.294 95.4247 173.294L102.152 173.295L102.152 177.364Z" fill="#2F2E41"/>
<path d="M116.517 105.074C116.517 105.074 125.106 104.442 122.358 118.341C119.609 132.24 113.916 170.259 113.916 170.259L108.755 170.912L105.706 120.194L103.399 170.912L96.8343 170.259L90.4071 115.814C90.4071 115.814 88.3433 111.436 90.4059 108.413C92.4684 105.39 116.517 105.074 116.517 105.074Z" fill="#2F2E41"/>
<path d="M111.021 70.643L113.405 69.4683C113.405 69.4683 119.28 69.0076 121.678 75.3532L128.037 84.1837L138.344 75.9709L142.81 78.8138L129.82 93.0677L124.419 93.7022L112.738 79.8035L111.021 70.643Z" fill="#3F3D56"/>
<path d="M102.368 45.0146C92.5701 45.0146 89.8276 54.9102 89.8276 60.4927C89.8276 66.0753 95.4419 65.2309 102.368 65.2309C105.34 65.2309 108.069 65.3852 110.219 65.1214L111.252 62.8006L112.084 64.7236C113.848 64.1276 114.907 62.9163 114.907 60.4927C114.907 54.9101 112.502 45.0146 102.368 45.0146Z" fill="#2F2E41"/>
<path d="M102.326 65.2217C106.986 65.2217 110.764 61.7482 110.764 57.4634C110.764 53.1786 106.986 49.7051 102.326 49.7051C97.6653 49.7051 93.8875 53.1786 93.8875 57.4634C93.8875 61.7482 97.6653 65.2217 102.326 65.2217Z" fill="#FFB6B6"/>
<path d="M92.5762 56.7021H95.9136L97.386 52.9116L97.6804 56.7021H99.2756L100.134 54.491L100.306 56.7021H112.159C112.159 54.5239 111.218 52.435 109.543 50.8948C107.868 49.3545 105.596 48.4893 103.226 48.4893H101.509C99.1396 48.4893 96.8676 49.3545 95.1924 50.8948C93.5173 52.435 92.5762 54.5239 92.5762 56.7021Z" fill="#2F2E41"/>
<path d="M148.994 62.4114H136.829V73.2398H148.994V62.4114Z" fill="#005133"/>
<path d="M119.187 102.216C117.892 102.231 113.989 80.9411 113.989 80.9411L113.405 69.4684L109.141 69.3366V69.0787C109.141 68.5609 108.918 68.0643 108.519 67.6981C108.121 67.3319 107.581 67.1262 107.018 67.1262H98.8968C98.3573 67.1265 97.8382 67.3156 97.445 67.6553C97.0518 67.9949 96.814 68.4595 96.7801 68.9545L93.4363 68.8512L87.6453 85.7677C87.6453 85.7677 92.9815 101.486 90.406 108.413C90.406 108.413 115.499 110.394 120.303 105.997C120.303 105.997 120.483 102.2 119.187 102.216Z" fill="#3F3D56"/>
<path d="M94.8733 70.959L93.4362 68.8513C93.4362 68.8513 88.7603 67.7884 86.8352 70.6372C84.9102 73.4861 79.2517 88.9221 79.2517 88.9221L85.0922 90.8173L91.7199 82.2742L94.8733 70.959Z" fill="#3F3D56"/>
<path d="M109.485 81.9958H97.3198V92.8243H109.485V81.9958Z" fill="#005133"/>
<path d="M87.9861 85.9095L83.7538 85.4978C83.4866 86.022 83.3525 86.5953 83.3618 87.1741C83.371 87.753 83.5234 88.3224 83.8073 88.8392C84.0912 89.3559 84.4992 89.8066 85.0005 90.1569C85.5017 90.5073 86.0831 90.7483 86.7006 90.8616L103.447 93.9346L101.7 88.9882L87.9861 85.9095Z" fill="#FFB6B6"/>
<path d="M103.497 93.9917C105.395 93.9917 106.933 92.5774 106.933 90.8329C106.933 89.0883 105.395 87.6741 103.497 87.6741C101.6 87.6741 100.062 89.0883 100.062 90.8329C100.062 92.5774 101.6 93.9917 103.497 93.9917Z" fill="#FFB6B6"/>
<path d="M99.2086 94.0877L86.4507 91.4074C85.5262 91.2108 84.6726 90.7981 83.9725 90.2092C83.2724 89.6204 82.7494 88.8754 82.4543 88.0462L81.9387 86.5843L85.2497 84.1887L100.419 88.0869L99.2086 94.0877Z" fill="#3F3D56"/>
<path d="M170.899 178H40.0035C39.9124 178 39.825 177.967 39.7605 177.907C39.6961 177.848 39.6599 177.768 39.6599 177.684C39.6599 177.6 39.6961 177.52 39.7605 177.461C39.825 177.401 39.9124 177.368 40.0035 177.368H170.899C170.99 177.368 171.078 177.401 171.142 177.461C171.207 177.52 171.243 177.6 171.243 177.684C171.243 177.768 171.207 177.848 171.142 177.907C171.078 177.967 170.99 178 170.899 178Z" fill="#CACACA"/>
</g>
<defs>
<clipPath id="clip0_506_5579">
<rect width="199" height="178" fill="white"/>
</clipPath>
</defs>
</svg>
